<svg width="33" height="33" viewBox="0 0 33 33" fill="none" xmlns="http://www.w3.org/2000/svg">
<circle cx="16.4434" cy="16.0254" r="16" fill="#FDF2F8"/>
<path d="M5.44613 19.2814C5.29413 19.2814 5.17013 19.2334 5.07413 19.1374C4.98613 19.0414 4.91813 18.9294 4.87013 18.8014C4.82213 18.6734 4.79013 18.5494 4.77413 18.4294C4.75813 18.3094 4.75013 18.2254 4.75013 18.1774C4.75013 17.9134 4.75813 17.6854 4.77413 17.4934C4.79813 17.2934 4.82213 17.0934 4.84613 16.8934V16.8454C4.84613 16.7974 4.83413 16.7534 4.81013 16.7134C4.79413 16.6654 4.77813 16.6134 4.76213 16.5574C4.76213 16.5414 4.75813 16.5294 4.75013 16.5214C4.75013 16.5134 4.75013 16.5054 4.75013 16.4974C4.75013 16.4414 4.77813 16.3854 4.83413 16.3294C4.88213 16.2894 4.94613 16.2574 5.02613 16.2334C5.11413 16.2014 5.19013 16.1854 5.25413 16.1854C5.28613 16.1854 5.31813 16.1934 5.35013 16.2094C5.36613 16.2254 5.37413 16.2414 5.37413 16.2574C5.37413 16.3134 5.35413 16.3814 5.31413 16.4614C5.27413 16.5654 5.25013 16.6294 5.24213 16.6534C5.23413 16.6694 5.23013 16.7334 5.23013 16.8454C5.23013 16.9094 5.27013 16.9934 5.35013 17.0974C5.43013 17.2014 5.52213 17.3054 5.62613 17.4094C5.73013 17.5054 5.82213 17.5894 5.90213 17.6614C5.99013 17.7334 6.04213 17.7694 6.05813 17.7694C6.10613 17.6414 6.18213 17.4654 6.28613 17.2414C6.39013 17.0094 6.50213 16.7614 6.62213 16.4974C6.74213 16.2334 6.86213 15.9814 6.98213 15.7414C7.10213 15.4934 7.20213 15.2854 7.28213 15.1174C7.32213 15.0294 7.35013 14.9534 7.36613 14.8894C7.38213 14.8254 7.39013 14.7774 7.39013 14.7454C7.39013 14.7134 7.38613 14.6894 7.37813 14.6734C7.37013 14.6494 7.36213 14.6334 7.35413 14.6254C7.37013 14.5294 7.44613 14.3814 7.58213 14.1814C7.72613 13.9734 7.89813 13.7614 8.09813 13.5454C8.29813 13.3214 8.50213 13.1334 8.71013 12.9814C8.91813 12.8294 9.10213 12.7534 9.26213 12.7534C9.31013 12.7534 9.38613 12.7694 9.49013 12.8014C9.59413 12.8254 9.69413 12.8694 9.79013 12.9334C9.88613 12.9974 9.94213 13.0854 9.95813 13.1974V13.2454C9.95813 13.2614 9.95413 13.2694 9.94613 13.2694C9.93813 13.2694 9.92213 13.2614 9.89813 13.2454C9.87413 13.2294 9.84613 13.2214 9.81413 13.2214C9.63013 13.2214 9.43013 13.3134 9.21413 13.4974C8.99813 13.6734 8.77413 13.9134 8.54213 14.2174C8.31813 14.5134 8.09813 14.8414 7.88213 15.2014C7.66613 15.5614 7.46213 15.9214 7.27013 16.2814C7.07813 16.6414 6.90613 16.9734 6.75413 17.2774C6.61013 17.5734 6.49413 17.8134 6.40613 17.9974C6.66213 18.1894 6.93413 18.3294 7.22213 18.4174C7.51013 18.4974 7.80213 18.5374 8.09813 18.5374C8.57813 18.5374 9.05413 18.4454 9.52613 18.2614C9.99813 18.0774 10.4381 17.8414 10.8461 17.5534C11.2621 17.2574 11.6101 16.9374 11.8901 16.5934C12.2261 16.1934 12.4781 15.7814 12.6461 15.3574C12.8221 14.9334 12.9101 14.5254 12.9101 14.1334C12.9101 13.6854 12.7981 13.2854 12.5741 12.9334C12.3501 12.5734 12.0061 12.2894 11.5421 12.0814C11.0861 11.8654 10.5021 11.7574 9.79013 11.7574C9.27813 11.7574 8.75013 11.8134 8.20613 11.9254C7.66213 12.0294 7.13813 12.1774 6.63413 12.3694C6.13013 12.5614 5.67413 12.7894 5.26613 13.0534C4.86613 13.3094 4.54613 13.5894 4.30613 13.8934C4.07413 14.1974 3.95813 14.5134 3.95813 14.8414C3.95813 15.0414 4.02213 15.1934 4.15013 15.2974C4.27813 15.3934 4.42213 15.4654 4.58213 15.5134C4.74213 15.5614 4.86613 15.6094 4.95413 15.6574C5.01813 15.6814 5.05013 15.7094 5.05013 15.7414C5.05013 15.7894 5.00613 15.8134 4.91813 15.8134C4.82213 15.8134 4.69413 15.7894 4.53413 15.7414C4.37413 15.6934 4.21413 15.6214 4.05413 15.5254C3.89413 15.4294 3.76213 15.3134 3.65813 15.1774C3.56213 15.0334 3.52613 14.8654 3.55013 14.6734C3.55013 14.6574 3.54613 14.6294 3.53813 14.5894C3.53013 14.5494 3.52613 14.5134 3.52613 14.4814C3.52613 14.0974 3.63813 13.7494 3.86213 13.4374C4.08613 13.1254 4.39013 12.8494 4.77413 12.6094C5.16613 12.3694 5.60613 12.1694 6.09413 12.0094C6.59013 11.8494 7.11013 11.7294 7.65413 11.6494C8.19813 11.5694 8.73413 11.5294 9.26213 11.5294C9.73413 11.5294 10.2141 11.5694 10.7021 11.6494C11.1981 11.7214 11.6541 11.8614 12.0701 12.0694C12.4861 12.2694 12.8181 12.5534 13.0661 12.9214C13.3221 13.2894 13.4501 13.7654 13.4501 14.3494C13.4501 14.9894 13.3061 15.5814 13.0181 16.1254C12.7381 16.6694 12.3581 17.1454 11.8781 17.5534C11.3981 17.9534 10.8621 18.2654 10.2701 18.4894C9.68613 18.7134 9.09013 18.8254 8.48213 18.8254C8.07413 18.8254 7.67813 18.7734 7.29413 18.6694C6.91813 18.5734 6.59013 18.4174 6.31013 18.2014C6.29413 18.2254 6.25413 18.2974 6.19013 18.4174C6.13413 18.5294 6.06213 18.6494 5.97413 18.7774C5.89413 18.9134 5.80613 19.0294 5.71013 19.1254C5.62213 19.2294 5.53413 19.2814 5.44613 19.2814ZM5.39813 18.9214C5.46213 18.9214 5.53013 18.8534 5.60213 18.7174C5.67413 18.5894 5.73813 18.4534 5.79413 18.3094C5.85013 18.1574 5.88613 18.0654 5.90213 18.0334C5.81413 17.9614 5.69413 17.8454 5.54213 17.6854C5.39813 17.5254 5.27413 17.3974 5.17013 17.3014C5.17013 17.3814 5.17013 17.5614 5.17013 17.8414C5.17813 18.1214 5.20613 18.4014 5.25413 18.6814C5.28613 18.8414 5.33413 18.9214 5.39813 18.9214ZM16.0441 18.9094C15.9881 18.9174 15.9321 18.9214 15.8761 18.9214C15.8201 18.9214 15.7641 18.9214 15.7081 18.9214C15.2041 18.9214 14.7841 18.8374 14.4481 18.6694C14.1201 18.5094 13.8721 18.3014 13.7041 18.0454C13.5441 17.7814 13.4641 17.5054 13.4641 17.2174C13.4641 16.8574 13.5841 16.5054 13.8241 16.1614C14.0721 15.8174 14.4281 15.5574 14.8921 15.3814C15.1641 15.2774 15.4241 15.2134 15.6721 15.1894C15.9281 15.1654 16.1641 15.1534 16.3801 15.1534C16.5961 15.1454 16.7761 15.1334 16.9201 15.1174C16.7281 14.9494 16.5321 14.7454 16.3321 14.5054C16.1321 14.2574 15.9641 13.9894 15.8281 13.7014C15.6921 13.4134 15.6241 13.1294 15.6241 12.8494C15.6241 12.7214 15.6401 12.5974 15.6721 12.4774C15.7041 12.3574 15.7601 12.2454 15.8401 12.1414C15.9281 12.0214 16.0641 11.9214 16.2481 11.8414C16.4401 11.7534 16.6481 11.6854 16.8721 11.6374C17.1041 11.5894 17.3161 11.5654 17.5081 11.5654C17.7561 11.5654 18.0001 11.6254 18.2401 11.7454C18.4881 11.8654 18.6881 12.0174 18.8401 12.2014C18.9041 12.1214 18.9761 12.0494 19.0561 11.9854C19.1361 11.9214 19.2201 11.8854 19.3081 11.8774C19.3241 11.8694 19.3481 11.8654 19.3801 11.8654C19.4441 11.8654 19.4961 11.8814 19.5361 11.9134C19.5841 11.9374 19.6081 11.9734 19.6081 12.0214C19.6081 12.0614 19.5841 12.1014 19.5361 12.1414C19.5041 12.1894 19.4441 12.2414 19.3561 12.2974C19.2761 12.3534 19.1921 12.4254 19.1041 12.5134C18.9921 12.6174 18.8921 12.7374 18.8041 12.8734C18.7161 13.0014 18.6721 13.1334 18.6721 13.2694C18.6721 13.3494 18.6961 13.4254 18.7441 13.4974C18.7521 13.5054 18.7561 13.5174 18.7561 13.5334C18.7561 13.5734 18.7321 13.5934 18.6841 13.5934C18.6441 13.5934 18.6041 13.5734 18.5641 13.5334C18.5241 13.4774 18.5041 13.3574 18.5041 13.1734C18.5041 13.0614 18.5161 12.9454 18.5401 12.8254C18.5641 12.6974 18.6041 12.5814 18.6601 12.4774C18.6681 12.4694 18.6721 12.4614 18.6721 12.4534C18.6801 12.4374 18.6881 12.4254 18.6961 12.4174C18.5681 12.2734 18.3881 12.1414 18.1561 12.0214C17.9321 11.9014 17.7001 11.8414 17.4601 11.8414C17.3721 11.8414 17.2841 11.8534 17.1961 11.8774C16.9241 11.9334 16.7361 12.0614 16.6321 12.2614C16.5281 12.4614 16.4761 12.6894 16.4761 12.9454C16.4761 13.1774 16.5081 13.4214 16.5721 13.6774C16.6441 13.9334 16.7321 14.1694 16.8361 14.3854C16.9401 14.6014 17.0441 14.7774 17.1481 14.9134C17.2441 15.0414 17.2921 15.1334 17.2921 15.1894C17.2921 15.2534 17.2201 15.2974 17.0761 15.3214C16.7081 15.3614 16.3481 15.4454 15.9961 15.5734C15.6521 15.7014 15.3761 15.8174 15.1681 15.9214C14.8001 16.1054 14.5241 16.3294 14.3401 16.5934C14.1561 16.8574 14.0641 17.1174 14.0641 17.3734C14.0641 17.7174 14.2161 18.0214 14.5201 18.2854C14.8241 18.5414 15.2561 18.6694 15.8161 18.6694C15.8721 18.6694 15.9281 18.6694 15.9841 18.6694C16.0401 18.6694 16.0961 18.6654 16.1521 18.6574C16.6401 18.6094 17.1041 18.4934 17.5441 18.3094C17.9921 18.1254 18.3881 17.8614 18.7321 17.5174C19.0761 17.1654 19.3281 16.7174 19.4881 16.1734C19.5281 16.0614 19.5521 15.9454 19.5601 15.8254C19.5761 15.7054 19.5841 15.5934 19.5841 15.4894C19.5841 15.3774 19.5761 15.2774 19.5601 15.1894C19.5521 15.1014 19.5361 15.0374 19.5121 14.9974C19.2801 15.1334 19.0361 15.2694 18.7801 15.4054C18.5321 15.5334 18.3041 15.6654 18.0961 15.8014C17.9841 15.8654 17.8321 15.9854 17.6401 16.1614C17.4561 16.3294 17.2921 16.5134 17.1481 16.7134C17.0041 16.9134 16.9321 17.0974 16.9321 17.2654C16.9321 17.3854 16.9801 17.4814 17.0761 17.5534C17.1401 17.6014 17.1721 17.6494 17.1721 17.6974C17.1721 17.7214 17.1521 17.7334 17.1121 17.7334C17.0801 17.7334 17.0481 17.7254 17.0161 17.7094C16.9121 17.6774 16.8321 17.5934 16.7761 17.4574C16.7281 17.3214 16.7041 17.1654 16.7041 16.9894C16.7041 16.7414 16.7521 16.5214 16.8481 16.3294C16.9361 16.1614 17.0601 16.0174 17.2201 15.8974C17.3881 15.7694 17.5881 15.6374 17.8201 15.5014C18.1081 15.3334 18.4161 15.1694 18.7441 15.0094C19.0721 14.8494 19.3801 14.6974 19.6681 14.5534C19.9561 14.4014 20.1921 14.2534 20.3761 14.1094C20.5601 13.9574 20.6521 13.8054 20.6521 13.6534C20.6521 13.6294 20.6521 13.6054 20.6521 13.5814C20.6521 13.5574 20.6441 13.5334 20.6281 13.5094C20.6281 13.5014 20.6241 13.4974 20.6161 13.4974C20.6161 13.4894 20.6161 13.4814 20.6161 13.4734C20.6161 13.4414 20.6281 13.4254 20.6521 13.4254C20.6921 13.4254 20.7281 13.4534 20.7601 13.5094C20.7921 13.5814 20.8081 13.6614 20.8081 13.7494C20.8081 13.9654 20.7001 14.1694 20.4841 14.3614C20.2681 14.5534 20.0001 14.7414 19.6801 14.9254C19.7681 15.0214 19.8641 15.1694 19.9681 15.3694C20.0721 15.5694 20.1241 15.7734 20.1241 15.9814C20.1241 16.0134 20.1241 16.0454 20.1241 16.0774C20.1241 16.1014 20.1201 16.1294 20.1121 16.1614C20.0321 16.6254 19.8481 17.0254 19.5601 17.3614C19.2801 17.6894 18.9401 17.9654 18.5401 18.1894C18.1401 18.4054 17.7201 18.5694 17.2801 18.6814C16.8481 18.8014 16.4361 18.8774 16.0441 18.9094ZM28.4913 20.4934C28.1553 20.4934 27.8073 20.4454 27.4473 20.3494C27.0953 20.2614 26.7633 20.1534 26.4513 20.0254C26.1393 19.9054 25.8673 19.8054 25.6353 19.7254C25.2113 19.5734 24.8153 19.4254 24.4473 19.2814C24.0793 19.1374 23.8193 19.0494 23.6673 19.0174C22.8913 18.8174 22.3433 18.7174 22.0233 18.7174C21.9673 18.7574 21.9153 18.7894 21.8673 18.8134C21.8193 18.8454 21.7673 18.8654 21.7113 18.8734C21.6873 18.8814 21.6513 18.8854 21.6033 18.8854C21.4593 18.8854 21.3873 18.8374 21.3873 18.7414C21.3873 18.6854 21.4313 18.6294 21.5193 18.5734C21.5833 18.5414 21.6553 18.5254 21.7353 18.5254C21.8233 18.5174 21.9113 18.5094 21.9993 18.5014C22.1833 18.3414 22.3553 18.1374 22.5153 17.8894C22.6833 17.6414 22.8033 17.4534 22.8753 17.3254C22.9393 17.2134 22.9993 17.1054 23.0553 17.0014C23.1193 16.8894 23.1833 16.7814 23.2473 16.6774C23.1193 16.7094 22.9873 16.7414 22.8513 16.7734C22.7153 16.7974 22.5833 16.8094 22.4553 16.8094C22.2233 16.8094 22.0113 16.7614 21.8193 16.6654C21.6353 16.5694 21.5433 16.3934 21.5433 16.1374C21.5433 15.9694 21.6153 15.8134 21.7593 15.6694C21.9113 15.5254 22.0673 15.4534 22.2273 15.4534C22.3233 15.4534 22.3713 15.4934 22.3713 15.5734C22.3713 15.6214 22.3353 15.6454 22.2633 15.6454C22.1753 15.6454 22.0953 15.6974 22.0233 15.8014C21.9513 15.9054 21.9153 16.0134 21.9153 16.1254C21.9153 16.2054 21.9393 16.2854 21.9873 16.3654C22.0433 16.4374 22.1353 16.4814 22.2633 16.4974C22.3833 16.5214 22.5113 16.5334 22.6473 16.5334C22.8793 16.5334 23.1153 16.5014 23.3553 16.4374C23.4673 16.2134 23.5713 15.9934 23.6673 15.7774C23.7713 15.5534 23.8713 15.3334 23.9673 15.1174C24.1673 14.6774 24.3713 14.2494 24.5793 13.8334C24.7873 13.4174 24.9913 13.0454 25.1913 12.7174C25.3913 12.3894 25.5713 12.1454 25.7313 11.9854C26.0353 11.6974 26.3393 11.4934 26.6433 11.3734C26.9553 11.2534 27.2353 11.1934 27.4833 11.1934C27.5313 11.1934 27.5793 11.1974 27.6273 11.2054C27.6753 11.2054 27.7193 11.2094 27.7593 11.2174C28.0553 11.2654 28.2633 11.3694 28.3833 11.5294C28.5033 11.6814 28.5633 11.8654 28.5633 12.0814C28.5633 12.1934 28.5513 12.3094 28.5273 12.4294C28.4233 12.9334 28.2113 13.4054 27.8913 13.8454C27.5793 14.2854 27.1993 14.6854 26.7513 15.0454C26.3033 15.3974 25.8233 15.6974 25.3113 15.9454C24.8073 16.1934 24.3153 16.3734 23.8353 16.4854C23.7313 16.6614 23.6193 16.8374 23.4993 17.0134C23.3873 17.1814 23.2633 17.3494 23.1273 17.5174C23.0473 17.6374 22.9313 17.7934 22.7793 17.9854C22.6273 18.1694 22.4713 18.3414 22.3113 18.5014C22.4233 18.5094 22.5433 18.5174 22.6713 18.5254C22.8073 18.5414 22.9513 18.5614 23.1033 18.5854C23.7673 18.6894 24.4313 18.8414 25.0953 19.0414C25.7673 19.2494 26.4313 19.4374 27.0873 19.6054C27.2713 19.6534 27.5313 19.7134 27.8673 19.7854C28.2113 19.8574 28.5313 19.8934 28.8273 19.8934C29.1153 19.8934 29.3353 19.8414 29.4873 19.7374C29.6073 19.6654 29.6673 19.5654 29.6673 19.4374C29.6673 19.3414 29.6233 19.2614 29.5353 19.1974C29.4873 19.1574 29.4633 19.1254 29.4633 19.1014C29.4633 19.0214 29.5113 19.0094 29.6073 19.0654C29.7113 19.1374 29.7833 19.2214 29.8233 19.3174C29.8713 19.4134 29.8953 19.5134 29.8953 19.6174C29.8953 19.7374 29.8713 19.8454 29.8233 19.9414C29.7833 20.0454 29.7313 20.1174 29.6673 20.1574C29.3393 20.3814 28.9473 20.4934 28.4913 20.4934ZM24.0153 16.2094C24.9033 15.8254 25.6833 15.3574 26.3553 14.8054C27.0273 14.2534 27.5593 13.5254 27.9513 12.6214C28.0793 12.3414 28.1433 12.0974 28.1433 11.8894C28.1433 11.7214 28.0913 11.5894 27.9873 11.4934C27.9313 11.4214 27.8393 11.3854 27.7113 11.3854C27.4473 11.3854 27.1753 11.4774 26.8953 11.6614C26.6553 11.8374 26.4273 12.0694 26.2113 12.3574C26.0033 12.6454 25.8073 12.9494 25.6233 13.2694C25.4393 13.5894 25.2753 13.8934 25.1313 14.1814C24.9953 14.4614 24.8793 14.6854 24.7833 14.8534C24.7193 14.9814 24.6193 15.1694 24.4833 15.4174C24.3553 15.6654 24.1993 15.9294 24.0153 16.2094Z" fill="black"/>
</svg>
