<svg width="60" height="55" viewBox="0 0 60 55" fill="none" xmlns="http://www.w3.org/2000/svg">
<path d="M43.2473 0.0203705C38.125 0.0203705 33.2088 2.40489 30 6.17301C26.7912 2.40489 21.875 0.0203705 16.7527 0.0203705C7.68564 0.0203705 0.561523 7.14448 0.561523 16.2115C0.561523 27.3393 10.5706 36.4063 25.7314 50.1836L30 54.04L34.2686 50.1541C49.4294 36.4063 59.4385 27.3393 59.4385 16.2115C59.4385 7.14448 52.3144 0.0203705 43.2473 0.0203705ZM30.2944 45.7972L30 46.0916L29.7056 45.7972C15.6929 33.1092 6.44922 24.7193 6.44922 16.2115C6.44922 10.3238 10.865 5.90807 16.7527 5.90807C21.2862 5.90807 25.702 8.82248 27.2622 12.8556H32.7672C34.298 8.82248 38.7138 5.90807 43.2473 5.90807C49.135 5.90807 53.5508 10.3238 53.5508 16.2115C53.5508 24.7193 44.3071 33.1092 30.2944 45.7972Z" fill="#EC499A"/>
</svg>
