<svg width="26" height="26" viewBox="0 0 26 26" fill="none" xmlns="http://www.w3.org/2000/svg">
<path fill-rule="evenodd" clip-rule="evenodd" d="M12.8919 25.6626L5.05466 18.6626H2.35918C1.92414 18.6626 1.50768 18.4899 1.20054 18.1827C0.893382 17.8756 0.720703 17.458 0.720703 17.0241V16.7803C0.720703 16.4787 0.965548 16.2338 1.26723 16.2338C1.5689 16.2338 1.81375 16.4787 1.81375 16.7803V17.0241C1.81375 17.1695 1.87168 17.3083 1.97333 17.4099C2.07608 17.5127 2.2149 17.5695 2.35918 17.5695H4.71582V8.46324H2.35918C2.21381 8.46324 2.07499 8.52117 1.97333 8.62282C1.87059 8.72557 1.81375 8.86439 1.81375 9.00867V13.9657C1.81375 14.2674 1.5689 14.5123 1.26723 14.5123C0.965548 14.5123 0.720703 14.2674 0.720703 13.9657V9.00867C0.720703 8.57363 0.893407 8.15717 1.20054 7.85004C1.50771 7.54287 1.92523 7.3702 2.35918 7.3702H5.05466L12.8919 0.370141C12.9881 0.28379 13.116 0.231323 13.2559 0.231323H15.254C15.5557 0.231323 15.8006 0.476168 15.8006 0.777846V1.68291C15.8006 1.98458 15.5557 2.22943 15.254 2.22943C14.9524 2.22943 14.7075 1.98458 14.7075 1.68291V1.3244H13.8025V24.7081H14.7075V4.49535C14.7075 4.19367 14.9524 3.94883 15.254 3.94883C15.5557 3.94883 15.8006 4.19367 15.8006 4.49535V25.2549C15.8006 25.5565 15.5557 25.8014 15.254 25.8014H13.2559C13.116 25.8014 12.9881 25.749 12.8919 25.6626ZM12.7094 1.9991L5.81009 8.16164V17.8712C6.91953 18.8615 12.7094 24.0338 12.7094 24.0338V1.9977V1.9991ZM25.1058 10.1576C25.66 10.7118 25.66 11.6114 25.1058 12.1667L24.2554 13.0171L25.1058 13.8675C25.66 14.4217 25.66 15.3213 25.1058 15.8765C24.5517 16.4307 23.6521 16.4307 23.0968 15.8765L22.2464 15.0261L21.396 15.8765C20.8418 16.4307 19.9422 16.4307 19.3869 15.8765C18.8327 15.3223 18.8327 14.4228 19.3869 13.8675L20.2373 13.0171L19.3869 12.1667C18.8327 11.6125 18.8327 10.7129 19.3869 10.1576C19.9411 9.60343 20.8407 9.60343 21.396 10.1576L22.2464 11.008L23.0968 10.1576C23.651 9.60343 24.5506 9.60343 25.1058 10.1576ZM20.1608 15.1027L20.1619 15.1037C20.2898 15.2316 20.4964 15.2305 20.6243 15.1027L21.8605 13.8664C22.0737 13.6532 22.4202 13.6532 22.6333 13.8664L23.8696 15.1027C23.9975 15.2305 24.2051 15.2305 24.333 15.1027C24.4609 14.9748 24.4609 14.7671 24.333 14.6392L23.0967 13.403C22.8836 13.1898 22.8836 12.8433 23.0967 12.6302L24.333 11.3939C24.4609 11.266 24.4609 11.0583 24.333 10.9305L24.3319 10.9294C24.204 10.8026 23.9974 10.8026 23.8696 10.9305L22.6333 12.1667C22.4202 12.3799 22.0737 12.3799 21.8605 12.1667L20.6243 10.9305C20.4964 10.8026 20.2887 10.8026 20.1608 10.9305L20.1597 10.9316C20.0318 11.0594 20.0329 11.266 20.1608 11.3939L21.3971 12.6302C21.6102 12.8433 21.6102 13.1898 21.3971 13.403L20.1608 14.6392C20.0329 14.7671 20.0329 14.9748 20.1608 15.1027Z" fill="black"/>
</svg>
