<svg width="25" height="25" viewBox="0 0 25 25" fill="none" xmlns="http://www.w3.org/2000/svg">
<path fill-rule="evenodd" clip-rule="evenodd" d="M23.6405 12.9152C24.2288 12.9152 24.71 12.4376 24.6576 11.8515C24.4805 9.86748 23.8083 7.95339 22.6945 6.28735C21.3838 4.32542 19.5208 2.79691 17.3412 1.89291C15.1614 0.990011 12.7624 0.75466 10.4477 1.21486C8.13388 1.67507 6.00759 2.81099 4.33946 4.47923C2.67134 6.14747 1.53521 8.27389 1.07509 10.5874C0.61489 12.9024 0.850238 15.3013 1.75314 17.4809C2.6572 19.6607 4.18574 21.5237 6.14758 22.8343C7.81359 23.9481 9.7278 24.6203 11.7118 24.7974C12.2978 24.8498 12.7755 24.3686 12.7755 23.7803C12.7755 23.1919 12.2966 22.7212 11.7118 22.6572C10.1506 22.4859 8.64664 21.9418 7.33105 21.0634C5.7198 19.9868 4.46386 18.456 3.7216 16.6653C2.97946 14.8747 2.78608 12.9047 3.16354 11.0033C3.54217 9.10196 4.47537 7.35659 5.84548 5.98552C7.21676 4.61541 8.96192 3.68221 10.8633 3.30358C12.7646 2.92611 14.7346 3.1195 16.5253 3.86164C18.316 4.60378 19.8469 5.85969 20.9233 7.47109C21.8018 8.78644 22.3458 10.2905 22.5171 11.8518C22.5812 12.4367 23.0519 12.9155 23.6402 12.9155L23.6405 12.9152ZM15.0821 23.5324C15.208 24.1068 15.7765 24.4761 16.3381 24.3013C18.1194 23.7433 19.7504 22.774 21.0961 21.4656C22.4405 20.1561 23.4541 18.553 24.0599 16.7866C24.251 16.2309 23.8968 15.6507 23.326 15.5109C22.7539 15.3699 22.1831 15.7218 21.9815 16.2752C21.4771 17.6546 20.6685 18.9082 19.6095 19.938C18.5505 20.9691 17.2759 21.7427 15.8825 22.2087C15.3256 22.3951 14.9575 22.958 15.0821 23.5324ZM10.0912 7.99407C10.6679 7.99407 11.1351 8.46125 11.1351 9.03795V17.0908C11.1351 17.6675 10.6679 18.1346 10.0912 18.1346C9.51449 18.1346 9.04731 17.6675 9.04731 17.0908V9.03795C9.04731 8.46125 9.51449 7.99407 10.0912 7.99407ZM16.2054 9.03795C16.2054 8.46125 15.7382 7.99407 15.1615 7.99407C14.5848 7.99407 14.1176 8.46125 14.1176 9.03795V17.0908C14.1176 17.6675 14.5848 18.1346 15.1615 18.1346C15.7382 18.1346 16.2054 17.6675 16.2054 17.0908V9.03795Z" fill="black"/>
</svg>
