<svg width="18" height="27" viewBox="0 0 18 27" fill="none" xmlns="http://www.w3.org/2000/svg">
<path fill-rule="evenodd" clip-rule="evenodd" d="M10.8338 8.06855C10.5996 7.86363 10.5759 7.50785 10.7808 7.27478C10.9858 7.04059 11.3415 7.01695 11.5746 7.22187L16.6086 11.6263C17.1197 12.0733 17.4136 12.7207 17.4136 13.3996C17.4136 14.0797 17.1198 14.726 16.6086 15.1729L4.25178 25.9851C3.55596 26.5942 2.56856 26.7395 1.72637 26.3578C0.884186 25.9761 0.34375 25.1362 0.34375 24.2118V2.58775C0.34375 1.66339 0.884186 0.823451 1.72637 0.441774C2.56856 0.0600966 3.55598 0.205334 4.25178 0.814458L8.71592 4.72145C8.95011 4.92636 8.97375 5.28215 8.76884 5.51521C8.56392 5.7494 8.20814 5.77304 7.97507 5.56813L3.51093 1.66114C3.14727 1.3425 2.63159 1.26707 2.19137 1.46636C1.75116 1.66564 1.46855 2.10473 1.46855 2.58775V24.2118C1.46855 24.6948 1.75115 25.1339 2.19137 25.3332C2.63159 25.5325 3.14727 25.4571 3.51093 25.1384L15.8677 14.3263C16.1346 14.0921 16.2877 13.7543 16.2877 13.3996C16.2877 13.045 16.1346 12.7072 15.8677 12.473L10.8338 8.06855Z" fill="black"/>
</svg>
