<svg width="26" height="21" viewBox="0 0 26 21" fill="none" xmlns="http://www.w3.org/2000/svg">
<path d="M13.3092 0.626757C13.0309 0.487081 12.6971 0.517892 12.4486 0.704812L6.09433 5.47023H1.43881C0.984855 5.47023 0.617188 5.8379 0.617188 6.29186V14.5081C0.617188 14.7258 0.703457 14.9353 0.857512 15.0894C1.01157 15.2434 1.22108 15.3297 1.4388 15.3297H6.09432L12.4486 20.0951C12.6971 20.2821 13.0309 20.3118 13.3092 20.1732C13.5875 20.0335 13.7632 19.749 13.7632 19.4378V1.3621C13.7632 1.0509 13.5876 0.766446 13.3092 0.626757ZM12.1199 17.7946L6.86153 13.8508C6.7198 13.744 6.54624 13.6865 6.36856 13.6865H2.26044V7.11351H6.36856C6.54623 7.11351 6.71979 7.056 6.86153 6.94919L12.1199 3.00539V17.7946ZM18.4587 5.79997C19.6623 7.02933 20.3361 8.67973 20.3361 10.4C20.3361 12.1203 19.6623 13.7706 18.4587 15.0001C18.1403 15.3215 17.6216 15.3267 17.2981 15.0093C16.9746 14.693 16.9684 14.1743 17.2848 13.8498C18.1875 12.9285 18.6928 11.6899 18.6928 10.4C18.6928 9.11006 18.1875 7.87145 17.2848 6.95023C16.9684 6.62568 16.9746 6.10705 17.2981 5.7907C17.6216 5.47336 18.1403 5.47851 18.4587 5.79997ZM25.2659 10.4C25.2762 13.1678 24.3447 15.8566 22.6244 18.0247C22.4898 18.1972 22.2926 18.3081 22.0759 18.3349C21.8582 18.3605 21.6405 18.2989 21.469 18.1644C21.2974 18.0288 21.1865 17.8306 21.1608 17.6139C21.1362 17.3961 21.1988 17.1784 21.3344 17.0079C22.8164 15.1243 23.6226 12.797 23.6226 10.3999C23.6226 8.00291 22.8164 5.67554 21.3344 3.79199C21.1988 3.6215 21.1362 3.40376 21.1619 3.18603C21.1875 2.96933 21.2974 2.77215 21.469 2.63658C21.6405 2.50102 21.8592 2.44042 22.0759 2.4661C22.2926 2.49177 22.4898 2.60269 22.6244 2.77524C24.3446 4.9433 25.2762 7.63225 25.2659 10.4Z" fill="black"/>
</svg>
